<svg width="1200" height="1200" viewBox="0 0 1200 1200" fill="none" xmlns="http://www.w3.org/2000/svg">
  <defs>
    <linearGradient id="bg" x1="0" y1="285" x2="1200" y2="915" gradientUnits="userSpaceOnUse">
      <stop stop-color="#07110D"/>
      <stop offset="0.56" stop-color="#0B1612"/>
      <stop offset="1" stop-color="#101917"/>
    </linearGradient>
    <radialGradient id="glowA" cx="0" cy="0" r="1" gradientUnits="userSpaceOnUse" gradientTransform="translate(145 365) rotate(30) scale(260 190)">
      <stop stop-color="#73F3C3" stop-opacity="0.30"/>
      <stop offset="1" stop-color="#73F3C3" stop-opacity="0"/>
    </radialGradient>
    <radialGradient id="glowB" cx="0" cy="0" r="1" gradientUnits="userSpaceOnUse" gradientTransform="translate(1010 390) rotate(180) scale(220 180)">
      <stop stop-color="#67D8FF" stop-opacity="0.17"/>
      <stop offset="1" stop-color="#67D8FF" stop-opacity="0"/>
    </radialGradient>
  </defs>

  <rect width="1200" height="1200" fill="#07110D"/>
  <rect y="285" width="1200" height="630" fill="url(#bg)"/>
  <rect y="285" width="1200" height="630" fill="url(#glowA)"/>
  <rect y="285" width="1200" height="630" fill="url(#glowB)"/>

  <rect x="72" y="345" width="1056" height="510" rx="26" fill="#0A120F" stroke="#29453D" stroke-width="2"/>

  <circle cx="132" cy="405" r="10" fill="#73F3C3"/>
  <text x="158" y="415" fill="#73F3C3" font-family="Arial, Helvetica, sans-serif" font-size="30" font-weight="700">ContextKit</text>

  <text x="116" y="520" fill="#F3FFF9" font-family="Arial, Helvetica, sans-serif" font-size="70" font-weight="700">Memory Layer</text>
  <text x="116" y="598" fill="#F3FFF9" font-family="Arial, Helvetica, sans-serif" font-size="70" font-weight="700">for AI Agents</text>

  <text x="116" y="670" fill="#C7D5D0" font-family="Arial, Helvetica, sans-serif" font-size="32">
    <tspan x="116" dy="0">x402-paid context compression, handoffs, profile memory,</tspan>
    <tspan x="116" dy="42">API credits, and TypeScript SDK for autonomous workflows.</tspan>
  </text>

  <g font-family="Arial, Helvetica, sans-serif" font-size="24" fill="#DBEFE8">
    <rect x="116" y="770" width="150" height="46" rx="23" fill="#151F1C" stroke="#33403B"/>
    <text x="150" y="800">summarize</text>

    <rect x="286" y="770" width="142" height="46" rx="23" fill="#151F1C" stroke="#33403B"/>
    <text x="321" y="800">compress</text>

    <rect x="448" y="770" width="128" height="46" rx="23" fill="#151F1C" stroke="#33403B"/>
    <text x="481" y="800">handoff</text>

    <rect x="596" y="770" width="116" height="46" rx="23" fill="#151F1C" stroke="#33403B"/>
    <text x="629" y="800">profile</text>
  </g>

  <text x="940" y="805" fill="#97AAA3" font-family="Arial, Helvetica, sans-serif" font-size="24">contextkit.pro</text>
</svg>
